<svg xmlns="http://www.w3.org/2000/svg" xmlns:xlink="http://www.w3.org/1999/xlink" viewBox="0,0,256,256" width="50px" height="50px" fill-rule="nonzero"><g fill="#edeeef" fill-rule="nonzero" stroke="none" stroke-width="1" stroke-linecap="butt" stroke-linejoin="miter" stroke-miterlimit="10" stroke-dasharray="" stroke-dashoffset="0" font-family="none" font-weight="none" font-size="none" text-anchor="none" style="mix-blend-mode: normal"><g transform="scale(4,4)"><path d="M32,3.07227c-0.68194,0 -1.36446,0.16772 -1.98047,0.50391c-4.58988,2.50394 -18.40763,10.04165 -22.99805,12.54688c-1.23154,0.67193 -2.02148,1.94354 -2.02148,3.33203v25.0918c0,1.38944 0.79054,2.66085 2.02148,3.33203v-0.00195c4.59198,2.50499 18.40689,10.04279 22.99805,12.54688c1.23145,0.67279 2.72696,0.67238 3.95898,0c4.59185,-2.50392 18.4055,-10.03908 22.99805,-12.54492l0.00195,-0.00195c1.23149,-0.67183 2.02148,-1.94353 2.02148,-3.33203v-25.0918c0,-1.38849 -0.78972,-2.65935 -2.02148,-3.33008l-0.00195,-0.00195c-4.59412,-2.50559 -18.4073,-10.04106 -22.99805,-12.54492c-0.61573,-0.33639 -1.29658,-0.5039 -1.97852,-0.50391zM32,5.07617c0.35431,0 0.70921,0.08525 1.02148,0.25586c4.5908,2.50389 18.40482,10.03979 22.99805,12.54492l0.00195,0.00195c0.62475,0.33959 0.97852,0.93766 0.97852,1.57422v25.0918c0,0.63656 -0.35349,1.23574 -0.97852,1.57617h-0.00195v0.00195c-4.59086,2.50492 -18.40636,10.04109 -22.99805,12.54492c-0.62597,0.34162 -1.41842,0.34121 -2.04297,0c-4.5908,-2.50396 -18.40798,-10.03991 -23,-12.54492v-0.00195c-0.62506,-0.34077 -0.97852,-0.93766 -0.97852,-1.57422v-25.0918c0,-0.63656 0.35349,-1.23574 0.97852,-1.57617h0.00195v-0.00195c4.58959,-2.50473 18.40793,-10.04086 22.99805,-12.54492c0.31299,-0.17081 0.66717,-0.25586 1.02148,-0.25586zM32,11.99414c-11.1152,0 -20.1582,9.043 -20.1582,20.1582c0,11.1152 9.043,20.1582 20.1582,20.1582c7.49569,0 14.04016,-4.11621 17.50977,-10.20117c0.13252,-0.23267 0.16621,-0.50876 0.09352,-0.76646c-0.07269,-0.25771 -0.24568,-0.4755 -0.48024,-0.60463l-15.63477,-8.60352l15.48438,-8.84766c0.23305,-0.13278 0.403,-0.35361 0.47168,-0.61289c0.06868,-0.25928 0.03033,-0.53528 -0.10644,-0.76602c-0.96865,-1.6344 -2.16061,-3.12111 -3.5332,-4.41797c-0.25714,-0.25878 -0.6348,-0.35702 -0.98544,-0.25633c-0.35065,0.10069 -0.61865,0.38432 -0.69932,0.74011c-0.08067,0.35579 0.03879,0.72727 0.31172,0.96935c0.98769,0.9332 1.78224,2.0491 2.54297,3.18164l-16.02734,9.1582c-0.31395,0.17948 -0.50655,0.51446 -0.50371,0.87607c0.00283,0.36162 0.20066,0.69353 0.51738,0.86807l16.19336,8.91016c-3.23475,4.99552 -8.75884,8.37305 -15.1543,8.37305c-10.0328,0 -18.1582,-8.12541 -18.1582,-18.1582c0,-10.0328 8.12541,-18.1582 18.1582,-18.1582c0.97127,0 1.92256,0.07572 2.85156,0.22266c0.35842,0.0685 0.72569,-0.06365 0.9583,-0.34481c0.23261,-0.28116 0.29362,-0.66669 0.1592,-1.00593c-0.13442,-0.33924 -0.44294,-0.57834 -0.805,-0.62387c-1.031,-0.16307 -2.08733,-0.24805 -3.16406,-0.24805zM38.70117,13.21484c-0.48024,0.01245 -0.88378,0.3646 -0.96113,0.83873c-0.07735,0.47413 0.19335,0.93628 0.64473,1.10072c1.1436,0.43299 2.23069,0.97724 3.25195,1.62109c0.46707,0.29502 1.08486,0.15555 1.37988,-0.31152c0.29502,-0.46707 0.15555,-1.08486 -0.31152,-1.37988c-1.13274,-0.71414 -2.34092,-1.31977 -3.61133,-1.80078c-0.12495,-0.04889 -0.25846,-0.07214 -0.39258,-0.06836zM18.94531,33.78906c-0.09028,-0.00106 -0.18029,0.01011 -0.26758,0.0332l-1.94141,0.48242c-0.5361,0.13322 -0.86271,0.67581 -0.72949,1.21191c0.13322,0.5361 0.67581,0.86271 1.21191,0.72949l1.94141,-0.48242c0.49381,-0.1138 0.82446,-0.57895 0.76965,-1.08273c-0.05481,-0.50378 -0.47776,-0.88694 -0.98449,-0.89188zM20.83984,38.18359c-0.19103,0.00226 -0.37742,0.0592 -0.53711,0.16406l-1.68555,1.07617c-0.30898,0.18872 -0.49183,0.52969 -0.47808,0.89148c0.01375,0.36179 0.22196,0.6879 0.54437,0.85262c0.32241,0.16472 0.70867,0.14233 1.00988,-0.05855l1.68555,-1.07617c0.38124,-0.23679 0.55807,-0.69854 0.43249,-1.12941c-0.12557,-0.43087 -0.52279,-0.72532 -0.97156,-0.7202zM24,41.75391c-0.29444,0.01301 -0.56815,0.15522 -0.74805,0.38867l-1.24414,1.56445c-0.23822,0.27795 -0.30555,0.66384 -0.17553,1.00604c0.13002,0.3422 0.43661,0.58602 0.7993,0.63565c0.36269,0.04963 0.72351,-0.10286 0.94068,-0.39754l1.24414,-1.56445c0.24976,-0.30501 0.29705,-0.72828 0.12074,-1.08088c-0.1763,-0.3526 -0.54329,-0.56874 -0.93715,-0.55193zM28.20117,43.94922c-0.43843,0.01101 -0.81854,0.30639 -0.9375,0.72852l-0.56836,1.91602c-0.10193,0.34263 -0.01331,0.71361 0.23247,0.97318c0.24578,0.25957 0.61138,0.36828 0.95906,0.28518c0.34768,-0.0831 0.6246,-0.34539 0.72644,-0.68804l0.56836,-1.91797c0.09578,-0.30787 0.03726,-0.64304 -0.15718,-0.90023c-0.19445,-0.2572 -0.50096,-0.40487 -0.82329,-0.39664z"></path></g></g></svg>