<svg xmlns="http://www.w3.org/2000/svg"  viewBox="0 0 80 80" width="80px" height="80px"><path fill="#8bb7f0" d="M57.472 20H60.555V30H57.472zM45.571 60.69c8.89-.98 15.859-4.15 20.422-6.92l-1.624-2.54c-4.276 2.58-10.781 5.57-19.106 6.49-.051-.45-.092-.89-.123-1.34-.421-5.22-.421-10.53 0-15.76L45.262 39h-9.178c.658-5.08 1.614-10.17 2.847-15.15 1.326-5.35 2.97-10.67 4.944-15.85.062-.17.123-.33.195-.5H8.653c-2.837 0-5.139 2.24-5.139 5v55.92c0 2.25 1.881 4.08 4.193 4.08H47.76c-.051-.17-.082-.33-.134-.5C46.732 68.27 46.043 64.49 45.571 60.69z"/><path fill="#4e7ab5" d="M47.76,72.5c-0.051-0.17-0.082-0.33-0.134-0.5H7.707c-2.025,0-3.679-1.61-3.679-3.58V12.5 c0-2.48,2.076-4.5,4.625-4.5h35.222c0.062-0.17,0.123-0.33,0.195-0.5c0.062-0.17,0.123-0.33,0.195-0.5H8.653C5.539,7,3,9.47,3,12.5 v55.92C3,70.94,5.117,73,7.707,73h40.176C47.842,72.83,47.801,72.67,47.76,72.5z"/><path fill="#788b9c" d="M77,11.58v56.84c0,2.52-2.117,4.58-4.707,4.58h-24.41c-0.041-0.17-0.082-0.33-0.123-0.5h24.533 c2.313,0,4.193-1.83,4.193-4.08V11.58c0-2.25-1.881-4.08-4.193-4.08H44.07c0.062-0.17,0.123-0.33,0.195-0.5h28.027 C74.883,7,77,9.06,77,11.58z"/><path fill="#788b9c" d="M76.486,11.58v56.84c0,2.25-1.881,4.08-4.193,4.08H47.76c-0.051-0.17-0.082-0.33-0.134-0.5h24.667 c2.025,0,3.679-1.61,3.679-3.58V11.58c0-1.97-1.655-3.58-3.679-3.58H43.875c0.062-0.17,0.123-0.33,0.195-0.5h28.223 C74.605,7.5,76.486,9.33,76.486,11.58z"/><path fill="#e1ebf2" d="M72.293,8H43.875c-1.973,5.18-3.618,10.5-4.944,15.85c-1.233,4.98-2.189,10.07-2.847,15.15h9.178 l-0.123,1.62c-0.421,5.23-0.421,10.54,0,15.76c0.031,0.45,0.072,0.89,0.123,1.34c8.325-0.92,14.831-3.91,19.106-6.49l1.624,2.54 c-4.563,2.77-11.532,5.94-20.422,6.92c0.473,3.8,1.161,7.58,2.056,11.31h24.667c2.025,0,3.679-1.61,3.679-3.58V11.58 C75.972,9.61,74.318,8,72.293,8z M60.556,30h-3.083V20h3.083V30z"/><path fill="#4e7ab5" d="M47.883,73h-3.176c-0.041-0.16-0.082-0.33-0.123-0.5c-0.041-0.16-0.072-0.33-0.113-0.5 c-0.863-3.64-1.521-7.34-1.973-11.06c-0.123-0.99-0.236-1.99-0.319-2.99c-0.051-0.44-0.092-0.89-0.123-1.33 c-0.38-4.85-0.421-9.75-0.113-14.62h-9.322l0.195-1.67c0.678-5.76,1.727-11.54,3.114-17.18c1.254-5.11,2.816-10.19,4.656-15.15 c0.062-0.17,0.123-0.34,0.195-0.5c0.051-0.17,0.123-0.34,0.185-0.5h3.299c-0.072,0.17-0.134,0.33-0.195,0.5 c-0.072,0.17-0.134,0.33-0.195,0.5c-1.973,5.18-3.618,10.5-4.944,15.85c-1.233,4.98-2.189,10.07-2.847,15.15h9.178l-0.123,1.62 c-0.421,5.23-0.421,10.54,0,15.76c0.031,0.45,0.072,0.89,0.123,1.34c0.082,0.99,0.195,1.98,0.308,2.97 c0.473,3.8,1.161,7.58,2.056,11.31c0.051,0.17,0.082,0.33,0.134,0.5C47.801,72.67,47.842,72.83,47.883,73z"/><path fill="#4e7ab5" d="M65.992 53.77c-4.563 2.77-11.532 5.94-20.422 6.92-.997.12-2.025.2-3.073.25C41.686 60.98 40.853 61 40.01 61h-.545c-11.367-.12-20.114-4-25.458-7.23l1.624-2.54c5.016 3.02 13.217 6.66 23.875 6.77.904.01 1.799 0 2.672-.05 1.048-.04 2.086-.12 3.083-.23 8.325-.92 14.831-3.91 19.106-6.49L65.992 53.77zM19.444 20H22.527V30H19.444zM57.472 20H60.555V30H57.472z"/></svg>