<svg
  xmlns="http://www.w3.org/2000/svg"
  viewBox="0 0 256 256"
  width="48"
  height="48"
  fill="#edeeef"
>
  <rect width="256" height="256" fill="none"></rect>
  <path d="M205.6,80.7c-4.2-8.8-8.9-17.3-14.6-25.4-9.4-13-21.3-23.7-35.5-31.4C140.9,11.4,126.2,7,112,7s-28.9,4.4-43.5,16.9C49.6,31,37.7,41.7,28.3,54.7c-5.7,8.1-10.4,16.6-14.6,25.4C8,100.5,3.3,112.6,3.3,125.5s4.7,25.1,10.4,38.8c4.2,8.8,8.9,17.3,14.6,25.4,9.4,13,21.3,23.7,35.5,31.4C83.1,220.6,97.8,225,112,225s28.9-4.4,43.5-16.9c14.2-7.7,26.1-18.4,35.5-31.4,5.7-8.1,10.4-16.6,14.6-25.4,5.7-13.7,10.4-25.8,10.4-38.8S211.3,100.5,205.6,80.7ZM128,175c-5.9,0-11.4-2.2-15.7-6.3L66.7,123.2a21.7,21.7,0,0,1,0-30.5,22.5,22.5,0,0,1,31.4,0l20.9,20.4,41.3-39.4a22.5,22.5,0,0,1,31.4,0,21.7,21.7,0,0,1,0,30.5L143.7,168.7A22.3,22.3,0,0,1,128,175Z"></path>
</svg>
