<svg xmlns="http://www.w3.org/2000/svg" xmlns:xlink="http://www.w3.org/1999/xlink" viewBox="0,0,256,256" width="50px" height="50px" fill-rule="nonzero"><g fill="#edeeef" fill-rule="nonzero" stroke="none" stroke-width="1" stroke-linecap="butt" stroke-linejoin="miter" stroke-miterlimit="10" stroke-dasharray="" stroke-dashoffset="0" font-family="none" font-weight="none" font-size="none" text-anchor="none" style="mix-blend-mode: normal"><g transform="scale(5.12,5.12)"><path d="M39.375,3.98828c-0.05693,-0.00029 -0.11377,0.00429 -0.16992,0.01367h-8.58398c-0.35508,-0.00022 -0.68365,0.18786 -0.86328,0.49414l-4.75781,8.12891l-4.75586,-8.12891c-0.17964,-0.30628 -0.5082,-0.49436 -0.86328,-0.49414h-8.62891c-0.06947,-0.0073 -0.13951,-0.0073 -0.20898,0h-9.53906c-0.35796,0.00023 -0.6885,0.19176 -0.86671,0.50221c-0.17821,0.31045 -0.1769,0.69247 0.00343,1.00169l23.99805,41c0.17962,0.30574 0.5077,0.49351 0.8623,0.49351c0.3546,0 0.68269,-0.18777 0.8623,-0.49351l24,-41c0.18015,-0.30892 0.18164,-0.69053 0.00391,-1.00085c-0.17773,-0.31032 -0.50763,-0.50213 -0.86524,-0.50306h-9.48242c-0.04778,-0.00805 -0.09609,-0.01262 -0.14453,-0.01367zM2.74805,6.00195h7.32617l14.0625,24.02734c0.17938,0.30668 0.50799,0.49518 0.86328,0.49518c0.35529,0 0.68391,-0.18849 0.86328,-0.49518l14.0625,-24.02734h7.33203l-22.25586,38.02148zM12.39063,6.00195h6.41602l5.33203,9.10742c0.17962,0.30574 0.5077,0.49351 0.8623,0.49351c0.3546,0 0.68269,-0.18777 0.8623,-0.49351l5.33203,-9.10742h6.41406l-12.60937,21.54297z"></path></g></g></svg>